<mxfile host="app.diagrams.net" agent="Mozilla/5.0 (Windows NT 10.0; Win64; x64) AppleWebKit/537.36 (KHTML, like Gecko) Chrome/130.0.0.0 Safari/537.36" version="24.7.6">
  <diagram name="Page-1" id="SU60sq1JpARpPboAShl4">
    <mxGraphModel dx="1434" dy="746" grid="1" gridSize="10" guides="1" tooltips="1" connect="1" arrows="1" fold="1" page="1" pageScale="1" pageWidth="1100" pageHeight="850" math="0" shadow="0">
      <root>
        <mxCell id="0" />
        <mxCell id="1" parent="0" />
        <mxCell id="pmOOVxwG420c-32HkS5u-1" value="&lt;font style=&quot;font-size: 18px;&quot;&gt;&lt;span style=&quot;font-size: 18px;&quot;&gt;&lt;b style=&quot;font-size: 18px;&quot;&gt;Step 1&lt;/b&gt;&lt;/span&gt;&lt;/font&gt;&lt;div style=&quot;font-size: 18px;&quot;&gt;&lt;font style=&quot;font-size: 18px;&quot;&gt;&lt;span style=&quot;font-size: 18px;&quot;&gt;Data&amp;nbsp;&lt;/span&gt;&lt;/font&gt;&lt;span style=&quot;font-size: 18px; background-color: initial;&quot;&gt;Collection&lt;/span&gt;&lt;/div&gt;" style="rounded=0;whiteSpace=wrap;html=1;strokeWidth=2;container=0;fontStyle=0;fontFamily=Times New Roman;fontSize=18;fillColor=#e1d5e7;strokeColor=#9673a6;" parent="1" vertex="1">
          <mxGeometry x="160" y="160" width="120" height="60" as="geometry" />
        </mxCell>
        <mxCell id="MPG2LtDlFFUvsX0TWPEw-3" value="" style="endArrow=classic;html=1;rounded=0;strokeWidth=2;entryX=0;entryY=0.5;entryDx=0;entryDy=0;fontStyle=0;exitX=1;exitY=0.5;exitDx=0;exitDy=0;fontFamily=Times New Roman;fontSize=18;" parent="1" source="pmOOVxwG420c-32HkS5u-1" target="MPG2LtDlFFUvsX0TWPEw-2" edge="1">
          <mxGeometry width="50" height="50" relative="1" as="geometry">
            <mxPoint x="120" y="420" as="sourcePoint" />
            <mxPoint x="580" y="330" as="targetPoint" />
            <Array as="points" />
          </mxGeometry>
        </mxCell>
        <mxCell id="MPG2LtDlFFUvsX0TWPEw-2" value="&lt;font style=&quot;font-size: 18px;&quot;&gt;&lt;b style=&quot;font-size: 18px;&quot;&gt;Step 2&lt;/b&gt;&lt;/font&gt;&lt;div style=&quot;font-size: 18px;&quot;&gt;&lt;font style=&quot;font-size: 18px;&quot;&gt;Pre-processing&lt;/font&gt;&lt;/div&gt;" style="rounded=0;whiteSpace=wrap;html=1;strokeWidth=2;container=0;fontStyle=0;fontFamily=Times New Roman;fontSize=18;fillColor=#f8cecc;strokeColor=#b85450;" parent="1" vertex="1">
          <mxGeometry x="400" y="160" width="120" height="60" as="geometry" />
        </mxCell>
        <mxCell id="MPG2LtDlFFUvsX0TWPEw-14" value="API&lt;div style=&quot;font-size: 18px;&quot;&gt;Endpoints&lt;/div&gt;" style="text;html=1;align=center;verticalAlign=middle;resizable=0;points=[];autosize=1;strokeColor=none;fillColor=none;fontFamily=Times New Roman;fontSize=18;" parent="1" vertex="1">
          <mxGeometry x="295" y="135" width="100" height="60" as="geometry" />
        </mxCell>
        <mxCell id="HHuTXF0BT0n3mswBOlXm-26" value="&lt;font style=&quot;font-size: 18px;&quot;&gt;&lt;span style=&quot;font-size: 18px;&quot;&gt;&lt;font style=&quot;font-size: 18px;&quot;&gt;Heuristics&lt;/font&gt;&lt;br style=&quot;font-size: 18px;&quot;&gt;&lt;/span&gt;&lt;/font&gt;" style="rounded=0;whiteSpace=wrap;html=1;strokeWidth=2;container=0;fontStyle=0;fontFamily=Times New Roman;fontSize=18;fillColor=#fad7ac;strokeColor=#b46504;" parent="1" vertex="1">
          <mxGeometry x="400" y="350" width="120" height="40" as="geometry" />
        </mxCell>
        <mxCell id="SRh0s-oIHB4yDXquQM8V-11" value="&lt;span style=&quot;border-color: var(--border-color); font-size: 18px;&quot;&gt;&lt;b style=&quot;font-size: 18px;&quot;&gt;Step 4&lt;/b&gt;&lt;/span&gt;&lt;font style=&quot;font-size: 18px;&quot;&gt;&lt;span style=&quot;font-size: 18px;&quot;&gt;&lt;br style=&quot;font-size: 18px;&quot;&gt;&lt;/span&gt;&lt;/font&gt;&lt;div style=&quot;font-size: 18px;&quot;&gt;&lt;span style=&quot;border-color: var(--border-color); font-size: 18px;&quot;&gt;Ground Truth&lt;/span&gt;&lt;/div&gt;&lt;div style=&quot;font-size: 18px;&quot;&gt;&lt;span style=&quot;border-color: var(--border-color); font-size: 18px;&quot;&gt;Definition&lt;/span&gt;&lt;/div&gt;" style="rounded=0;whiteSpace=wrap;html=1;strokeWidth=2;container=0;fontStyle=0;fontFamily=Times New Roman;fontSize=18;fillColor=#fad7ac;strokeColor=#b46504;" parent="1" vertex="1">
          <mxGeometry x="680" y="80" width="200" height="60" as="geometry" />
        </mxCell>
        <mxCell id="MPG2LtDlFFUvsX0TWPEw-16" value="API Endpoints" style="text;html=1;align=center;verticalAlign=middle;resizable=0;points=[];autosize=1;rotation=270;fontFamily=Times New Roman;fontSize=18;" parent="1" vertex="1">
          <mxGeometry x="563.72" y="170" width="130" height="40" as="geometry" />
        </mxCell>
        <mxCell id="MPG2LtDlFFUvsX0TWPEw-17" value="Ground Truths" style="text;html=1;align=center;verticalAlign=middle;resizable=0;points=[];autosize=1;fontFamily=Times New Roman;fontSize=18;rotation=90;" parent="1" vertex="1">
          <mxGeometry x="890" y="100" width="130" height="40" as="geometry" />
        </mxCell>
        <mxCell id="MPG2LtDlFFUvsX0TWPEw-18" value="Detection Results" style="text;html=1;align=center;verticalAlign=middle;resizable=0;points=[];autosize=1;fontFamily=Times New Roman;fontSize=18;rotation=90;" parent="1" vertex="1">
          <mxGeometry x="880" y="270" width="150" height="40" as="geometry" />
        </mxCell>
        <mxCell id="bsZUljo46k6Ao63WO0Gu-11" value="" style="endArrow=classic;html=1;rounded=0;strokeWidth=2;fontSize=18;exitX=1;exitY=0.5;exitDx=0;exitDy=0;" edge="1" parent="1" source="MPG2LtDlFFUvsX0TWPEw-2">
          <mxGeometry width="50" height="50" relative="1" as="geometry">
            <mxPoint x="550" y="190" as="sourcePoint" />
            <mxPoint x="680" y="117" as="targetPoint" />
            <Array as="points">
              <mxPoint x="600" y="190" />
              <mxPoint x="600" y="117" />
            </Array>
          </mxGeometry>
        </mxCell>
        <mxCell id="bsZUljo46k6Ao63WO0Gu-12" value="" style="endArrow=classic;html=1;rounded=0;entryX=0.006;entryY=0.46;entryDx=0;entryDy=0;entryPerimeter=0;strokeWidth=2;fontSize=18;" edge="1" parent="1" target="pmOOVxwG420c-32HkS5u-2">
          <mxGeometry width="50" height="50" relative="1" as="geometry">
            <mxPoint x="600" y="190" as="sourcePoint" />
            <mxPoint x="690" y="140" as="targetPoint" />
            <Array as="points">
              <mxPoint x="600" y="320" />
            </Array>
          </mxGeometry>
        </mxCell>
        <mxCell id="bsZUljo46k6Ao63WO0Gu-13" value="" style="endArrow=classic;html=1;rounded=0;strokeWidth=2;fontSize=18;exitX=1;exitY=0.5;exitDx=0;exitDy=0;" edge="1" parent="1" source="HHuTXF0BT0n3mswBOlXm-26">
          <mxGeometry width="50" height="50" relative="1" as="geometry">
            <mxPoint x="550" y="340" as="sourcePoint" />
            <mxPoint x="680" y="370" as="targetPoint" />
          </mxGeometry>
        </mxCell>
        <mxCell id="bsZUljo46k6Ao63WO0Gu-14" value="" style="endArrow=classic;html=1;rounded=0;entryX=1.008;entryY=0.468;entryDx=0;entryDy=0;entryPerimeter=0;strokeWidth=2;fontSize=18;" edge="1" parent="1" target="MPG2LtDlFFUvsX0TWPEw-9">
          <mxGeometry width="50" height="50" relative="1" as="geometry">
            <mxPoint x="840" y="300" as="sourcePoint" />
            <mxPoint x="960" y="610" as="targetPoint" />
            <Array as="points">
              <mxPoint x="940" y="300" />
              <mxPoint x="940" y="200" />
              <mxPoint x="1000" y="200" />
              <mxPoint x="1000" y="600" />
            </Array>
          </mxGeometry>
        </mxCell>
        <mxCell id="bsZUljo46k6Ao63WO0Gu-15" value="" style="endArrow=none;html=1;rounded=0;strokeWidth=2;fontSize=18;" edge="1" parent="1">
          <mxGeometry width="50" height="50" relative="1" as="geometry">
            <mxPoint x="880" y="110" as="sourcePoint" />
            <mxPoint x="940" y="200" as="targetPoint" />
            <Array as="points">
              <mxPoint x="940" y="110" />
            </Array>
          </mxGeometry>
        </mxCell>
        <mxCell id="pmOOVxwG420c-32HkS5u-2" value="&lt;font style=&quot;font-size: 18px;&quot;&gt;&lt;span style=&quot;font-size: 18px;&quot;&gt;&lt;br style=&quot;font-size: 18px;&quot;&gt;&lt;/span&gt;&lt;/font&gt;" style="rounded=0;whiteSpace=wrap;html=1;strokeWidth=2;container=0;fontStyle=0;fontFamily=Times New Roman;fontSize=18;fillColor=#fad7ac;strokeColor=#b46504;" parent="1" vertex="1">
          <mxGeometry x="680" y="200.61" width="200" height="259.39" as="geometry" />
        </mxCell>
        <mxCell id="pmOOVxwG420c-32HkS5u-4" value="&lt;div style=&quot;text-align: center; font-size: 18px;&quot;&gt;&lt;b style=&quot;font-size: 18px;&quot;&gt;Step 3&lt;/b&gt;&lt;/div&gt;&lt;div style=&quot;text-align: center; font-size: 18px;&quot;&gt;&lt;b style=&quot;font-size: 18px;&quot;&gt;Antipattern Detection&lt;/b&gt;&lt;/div&gt;" style="text;whiteSpace=wrap;html=1;container=0;strokeWidth=2;fontStyle=0;fontFamily=Times New Roman;fontSize=18;fillColor=none;" parent="1" vertex="1">
          <mxGeometry x="693.72" y="200.61" width="176.28" height="44.88" as="geometry" />
        </mxCell>
        <mxCell id="MPG2LtDlFFUvsX0TWPEw-4" value="Analysis" style="rounded=0;whiteSpace=wrap;html=1;strokeWidth=2;verticalAlign=top;fontFamily=Times New Roman;fontSize=18;fillColor=#fad7ac;strokeColor=#b46504;" parent="1" vertex="1">
          <mxGeometry x="712.5" y="260" width="127.5" height="170" as="geometry" />
        </mxCell>
        <mxCell id="ErhxkkcFe3KiioCIOO-B-2" value="&lt;div style=&quot;font-size: 18px;&quot;&gt;&lt;font style=&quot;font-size: 18px;&quot;&gt;&lt;span style=&quot;font-size: 18px;&quot;&gt;Semantic Analysis&lt;/span&gt;&lt;/font&gt;&lt;/div&gt;" style="rounded=0;whiteSpace=wrap;html=1;strokeWidth=2;container=0;fontStyle=0;fontFamily=Times New Roman;fontSize=18;fillColor=#fad7ac;strokeColor=#b46504;" parent="1" vertex="1">
          <mxGeometry x="727.509375" y="296.71121951219516" width="97.484375" height="53.29268292682927" as="geometry" />
        </mxCell>
        <mxCell id="MPG2LtDlFFUvsX0TWPEw-6" value="&lt;div style=&quot;font-size: 18px;&quot;&gt;&lt;font style=&quot;font-size: 18px;&quot;&gt;&lt;span style=&quot;font-size: 18px;&quot;&gt;Syntactic Analysis&lt;/span&gt;&lt;/font&gt;&lt;/div&gt;" style="rounded=0;whiteSpace=wrap;html=1;strokeWidth=2;container=0;fontStyle=0;fontFamily=Times New Roman;fontSize=18;fillColor=#fad7ac;strokeColor=#b46504;" parent="1" vertex="1">
          <mxGeometry x="727.509375" y="360.0034146341464" width="97.484375" height="56.09756097560976" as="geometry" />
        </mxCell>
        <mxCell id="bsZUljo46k6Ao63WO0Gu-22" value="" style="group;fontSize=18;" vertex="1" connectable="0" parent="1">
          <mxGeometry x="160" y="440" width="380" height="340" as="geometry" />
        </mxCell>
        <mxCell id="MPG2LtDlFFUvsX0TWPEw-9" value="&lt;b style=&quot;font-size: 18px;&quot;&gt;&lt;font style=&quot;font-size: 18px;&quot;&gt;Step 5&lt;/font&gt;&lt;/b&gt;&lt;div style=&quot;font-size: 18px;&quot;&gt;&lt;div style=&quot;font-size: 18px;&quot;&gt;&lt;font style=&quot;font-size: 18px;&quot;&gt;Deliberation&lt;/font&gt;&lt;/div&gt;&lt;div style=&quot;font-weight: bold; font-size: 18px;&quot;&gt;&lt;br style=&quot;font-size: 18px;&quot;&gt;&lt;/div&gt;&lt;/div&gt;" style="rounded=0;whiteSpace=wrap;html=1;verticalAlign=top;fontFamily=Times New Roman;dashed=1;strokeWidth=2;fontSize=18;strokeColor=#84da1b;" parent="bsZUljo46k6Ao63WO0Gu-22" vertex="1">
          <mxGeometry width="380" height="340" as="geometry" />
        </mxCell>
        <mxCell id="HHuTXF0BT0n3mswBOlXm-6" value="&lt;font style=&quot;font-size: 18px;&quot;&gt;&lt;span style=&quot;font-size: 18px;&quot;&gt;Measure Performance&lt;/span&gt;&lt;/font&gt;" style="rounded=0;whiteSpace=wrap;html=1;strokeWidth=2;container=0;fontStyle=0;fontFamily=Times New Roman;fontSize=18;fillColor=#d5e8d4;gradientColor=#97d077;strokeColor=#82b366;" parent="bsZUljo46k6Ao63WO0Gu-22" vertex="1">
          <mxGeometry x="240" y="60" width="120" height="60" as="geometry" />
        </mxCell>
        <mxCell id="HHuTXF0BT0n3mswBOlXm-10" value="&lt;font style=&quot;font-size: 18px;&quot;&gt;&lt;span style=&quot;font-size: 18px;&quot;&gt;Answer Research Questions&lt;br style=&quot;font-size: 18px;&quot;&gt;&lt;/span&gt;&lt;/font&gt;" style="rounded=0;whiteSpace=wrap;html=1;strokeWidth=2;container=0;fontStyle=0;fontFamily=Times New Roman;fontSize=18;fillColor=#d5e8d4;gradientColor=#97d077;strokeColor=#82b366;" parent="bsZUljo46k6Ao63WO0Gu-22" vertex="1">
          <mxGeometry x="20" y="145" width="120" height="60" as="geometry" />
        </mxCell>
        <mxCell id="MPG2LtDlFFUvsX0TWPEw-10" value="Synthesis of Findings" style="rounded=0;whiteSpace=wrap;html=1;strokeWidth=2;container=0;fontStyle=0;fontFamily=Times New Roman;fontSize=18;fillColor=#d5e8d4;gradientColor=#97d077;strokeColor=#82b366;" parent="bsZUljo46k6Ao63WO0Gu-22" vertex="1">
          <mxGeometry x="240" y="240" width="120" height="60" as="geometry" />
        </mxCell>
        <mxCell id="HHuTXF0BT0n3mswBOlXm-41" value="Detection&lt;div style=&quot;font-size: 18px;&quot;&gt;Performance&lt;/div&gt;" style="text;html=1;align=center;verticalAlign=middle;resizable=0;points=[];autosize=1;container=0;strokeWidth=2;fontStyle=0;fontFamily=Times New Roman;fontSize=18;rotation=270;" parent="bsZUljo46k6Ao63WO0Gu-22" vertex="1">
          <mxGeometry x="155" y="150" width="120" height="60" as="geometry" />
        </mxCell>
        <mxCell id="bsZUljo46k6Ao63WO0Gu-16" value="" style="endArrow=classic;html=1;rounded=0;entryX=1;entryY=0.5;entryDx=0;entryDy=0;strokeWidth=2;fontSize=18;exitX=0;exitY=0.5;exitDx=0;exitDy=0;" edge="1" parent="bsZUljo46k6Ao63WO0Gu-22" source="HHuTXF0BT0n3mswBOlXm-6" target="HHuTXF0BT0n3mswBOlXm-10">
          <mxGeometry width="50" height="50" relative="1" as="geometry">
            <mxPoint x="230" y="120" as="sourcePoint" />
            <mxPoint x="280" y="70" as="targetPoint" />
            <Array as="points">
              <mxPoint x="180" y="90" />
              <mxPoint x="180" y="175" />
            </Array>
          </mxGeometry>
        </mxCell>
        <mxCell id="bsZUljo46k6Ao63WO0Gu-17" value="" style="endArrow=none;html=1;rounded=0;strokeWidth=2;fontSize=18;exitX=0;exitY=0.5;exitDx=0;exitDy=0;" edge="1" parent="bsZUljo46k6Ao63WO0Gu-22" source="MPG2LtDlFFUvsX0TWPEw-10">
          <mxGeometry width="50" height="50" relative="1" as="geometry">
            <mxPoint x="230" y="220" as="sourcePoint" />
            <mxPoint x="180" y="170" as="targetPoint" />
            <Array as="points">
              <mxPoint x="180" y="270" />
            </Array>
          </mxGeometry>
        </mxCell>
      </root>
    </mxGraphModel>
  </diagram>
</mxfile>
